<svg viewBox="-53.1841 -137.89 327.629 331.113" width="1934.82" height="1955.39" style="background-color:#FFFFFFFF" xmlns="http://www.w3.org/2000/svg" xmlns:xlink="http://www.w3.org/1999/xlink">

<defs>
<marker orient='auto' refY='0.0' refX='0.0' id='ArrowStart#d838cfff' style='overflow:visible'>
  <path d='M -8,5.0 L 0.0,0.0 L -8,-5.0' style='fill:none; stroke:rgba(216,56,207,1); stroke-opacity:1' transform='scale(-1) translate(0,0)' />
</marker>
<marker orient='auto' refY='0.0' refX='0.0' id='ArrowEnd#d838cfff' style='overflow:visible'>
  <path d='M -8,5.0 L 0.0,0.0 L -8,-5.0' style='fill:none; stroke:rgba(216,56,207,1); stroke-opacity:1' transform='scale(1) translate(0,0)' />
</marker>
<marker orient='auto' refY='0.0' refX='0.0' id='ArrowStart#ff1a40ff' style='overflow:visible'>
  <path d='M -8,5.0 L 0.0,0.0 L -8,-5.0' style='fill:none; stroke:rgba(255,26,64,1); stroke-opacity:1' transform='scale(-1) translate(0,0)' />
</marker>
<marker orient='auto' refY='0.0' refX='0.0' id='ArrowEnd#ff1a40ff' style='overflow:visible'>
  <path d='M -8,5.0 L 0.0,0.0 L -8,-5.0' style='fill:none; stroke:rgba(255,26,64,1); stroke-opacity:1' transform='scale(1) translate(0,0)' />
</marker>
</defs>
<path d='M51.534 -119.259 L227.756 -119.259 L227.756 -47.44 L51.534 -47.44 Z' style='fill:none; stroke:rgba(0,255,34,1); stroke-width:0.4375px' />
<path d='M53.6249 -15.1973 L236.274 -15.1973 L236.275 40.8748 L53.6249 40.8748 Z' style='fill:none; stroke:rgba(255,26,64,1); stroke-width:0.4375px' />
<rect x='94.707' y='110.196' width='61.8129' height='69.3034' style='fill:none; stroke:rgba(216,56,207,1); stroke-width:0.4375px' />
<rect x='199.632' y='110.508' width='61.8129' height='68.9919' style='fill:none; stroke:rgba(216,56,207,1); stroke-width:0.4375px' />
<rect x='-23.9131' y='159.866' width='14.9968' height='14.9968' style='fill:none; stroke:rgba(0,0,0,1); stroke-width:0.4375px' />
<rect x='-23.9132' y='125.729' width='87.5206' height='24.5697' style='fill:none; stroke:rgba(0,0,0,1); stroke-width:0.4375px' />
<rect x='5.4831' y='159.648' width='14.9968' height='14.9968' style='fill:none; stroke:rgba(0,0,0,1); stroke-width:0.4375px' />
<rect x='45.0254' y='160.254' width='14.9968' height='14.9968' style='fill:none; stroke:rgba(0,0,0,1); stroke-width:0.4375px' />
<path d="M -6.9085 156.198 L -6.9085 156.198 L -6.89856 156.103 L -6.86103 156.016 L -6.80887 155.935 L -6.74635 155.862 L -6.67349 155.798 L -6.5898 155.749 L -6.4992 155.714 L -6.40261 155.698 L -6.31884 155.731 L -6.29359 155.821 L -6.28838 155.86 L -6.28256 155.902 L -6.27825 155.951 L -6.27633 156.005 L -6.27597 156.056 L -6.27614 156.1 L -6.27635 156.141 L -6.27646 156.18 L -6.27649 156.222 L -6.27649 156.272 L -6.27648 156.331 L -6.27647 156.393 L -6.27647 156.46 L -6.27647 156.532 L -6.27647 156.606 L -6.27647 156.666 L -6.27647 156.712 L -6.27647 156.753 L -6.27647 156.796 L -6.27647 156.846 L -6.27647 156.901 L -6.27647 156.952 L -6.27647 156.997 L -6.27647 157.037 L -6.27647 157.077 L -6.27647 157.117 L -6.27649 157.162 L -6.27651 157.212 L -6.27653 157.268 L -6.27649 157.318 L -6.27626 157.363 L -6.27574 157.403 L -6.27511 157.443 L -6.27545 157.487 L -6.27921 157.538 L -6.28938 157.594 L -6.3149 157.694 L -6.33004 157.744 L -6.30452 157.644 L -6.31549 157.688 L -6.32294 157.729 L -6.33274 157.769 L -6.35826 157.869 L -6.37164 157.913 L -6.34612 157.813 L -6.35579 157.863 L -6.3627 157.919 L -6.3724 157.97 L -6.39792 158.07 L -6.41136 158.114 L -6.38584 158.014 L -6.39561 158.055 L -6.4028 158.096 L -6.41304 158.139 L -6.43856 158.24 L -6.45261 158.29 L -6.42709 158.19 L -6.43647 158.246 L -6.43972 158.296 L -6.43952 158.34 L -6.43835 158.381 L -6.43823 158.421 L -6.44176 158.461 L -6.45168 158.505 L -6.4772 158.606 L -6.49175 158.656 L -6.46623 158.556 L -6.4757 158.612 L -6.47835 158.662 L -6.47743 158.706 L -6.47751 158.747 L -6.4846 158.787 L -6.51012 158.888 L -6.53044 158.932 L -6.57828 159.023 L -6.60878 159.074 L -6.56095 158.983 L -6.58227 159.039 L -6.55675 158.939 L -6.56578 158.991 L -6.56752 159.036 L -6.56352 159.074 L -6.59021 158.978 L -6.57623 159.005 L -6.54779 159.017 L -6.63632 158.981 L -6.59807 158.983 L -6.55674 158.982 L -6.51559 158.985 L -6.47484 158.994 L -6.43315 159.009 L -6.38892 159.02 L -6.34211 159.028 L -6.29702 159.038 L -6.2085 159.074 L -6.17265 159.088 L -6.26117 159.053 L -6.22671 159.062 L -6.18994 159.065 L -6.15109 159.066 L -6.11003 159.065 L -6.06515 159.065 L -6.01443 159.064 L -5.95939 159.064 L -5.90904 159.064 L -5.86489 159.064 L -5.82451 159.064 L -5.78463 159.064 L -5.74182 159.064 L -5.69314 159.064 L -5.63959 159.064 L -5.58603 159.064 L -5.52461 159.064 L -5.44456 159.064 L -5.35104 159.064 L -5.26161 159.064 L -5.1849 159.064 L -5.12125 159.064 L -5.06459 159.064 L -5.01525 159.064 L -4.96849 159.064 L -4.91816 159.064 L -4.86353 159.064 L -4.81335 159.064 L -4.76972 159.064 L -4.7296 159.064 L -4.68921 159.064 L -4.6451 159.064 L -4.59477 159.064 L -4.53984 159.064 L -4.48952 159.065 L -4.44543 159.064 L -4.40508 159.064 L -4.36495 159.063 L -4.32115 159.062 L -4.27048 159.063 L -4.21508 159.07 L -4.12656 159.105 L -4.07598 159.125 L -4.03181 159.154 L -3.99153 159.173 L -4.08005 159.138 L -4.04019 159.145 L -3.99688 159.15 L -3.94665 159.16 L -3.89108 159.174 L -3.8403 159.185 L -3.79591 159.188 L -3.75507 159.189 L -3.71574 159.188 L -3.67583 159.188 L -3.63237 159.188 L -3.5822 159.187 L -3.52674 159.188 L -3.47538 159.188 L -3.4285 159.188 L -3.33998 159.223 L -3.3133 159.318 L -3.33882 159.419 L -3.38665 159.509 L -3.44673 159.592 L -3.54838 159.697 L -3.63048 159.757 L -3.72112 159.801 L -3.81905 159.823 L -3.86592 159.823 L -3.91728 159.823 L -3.97274 159.823 L -4.02292 159.823 L -4.06637 159.823 L -4.10629 159.824 L -4.14561 159.824 L -4.18645 159.824 L -4.23084 159.82 L -4.33161 159.803 L -4.38239 159.793 L -4.43796 159.778 L -4.4882 159.769 L -4.38742 159.785 L -4.43073 159.781 L -4.5315 159.764 L -4.57136 159.756 L -4.61164 159.737 L -4.65582 159.708 L -4.70639 159.689 L -4.60562 159.705 L -4.66102 159.698 L -4.71169 159.697 L -4.75549 159.698 L -4.79562 159.699 L -4.83597 159.7 L -4.88006 159.7 L -4.93038 159.7 L -4.98531 159.7 L -5.03564 159.7 L -5.07976 159.7 L -5.12014 159.7 L -5.16026 159.7 L -5.20389 159.7 L -5.25407 159.7 L -5.3087 159.7 L -5.35903 159.7 L -5.40579 159.7 L -5.45513 159.7 L -5.51179 159.7 L -5.57544 159.7 L -5.65216 159.7 L -5.74158 159.7 L -5.8351 159.7 L -5.91515 159.7 L -5.97657 159.7 L -6.03013 159.7 L -6.08368 159.7 L -6.13236 159.7 L -6.17517 159.7 L -6.21505 159.7 L -6.25543 159.7 L -6.29958 159.7 L -6.34993 159.7 L -6.40497 159.7 L -6.45569 159.7 L -6.50058 159.7 L -6.54163 159.701 L -6.58048 159.701 L -6.61725 159.697 L -6.71802 159.681 L -6.75248 159.671 L -6.78833 159.657 L -6.83343 159.647 L -6.88023 159.639 L -6.92446 159.628 L -6.96615 159.613 L -7.0069 159.604 L -6.90613 159.62 L -6.94729 159.618 L -6.98861 159.618 L -7.02686 159.616 L -7.12763 159.6 L -7.15607 159.588 L -7.17004 159.562 L -7.21335 159.472 L -7.21736 159.434 L -7.21562 159.389 L -7.20512 159.289 L -7.19608 159.237 L -7.17476 159.181 L -7.13509 159.089 L -7.10459 159.038 L -7.08426 158.993 L -7.12393 159.085 L -7.11684 159.045 L -7.12734 159.145 L -7.12727 159.104 L -7.12818 159.061 L -7.12554 159.01 L -7.11504 158.91 L -7.10556 158.854 L -7.09101 158.803 L -7.0811 158.759 L -7.0916 158.86 L -7.08807 158.819 L -7.08818 158.779 L -7.08936 158.739 L -7.08956 158.695 L -7.08631 158.644 L -7.07581 158.543 L -7.06643 158.488 L -7.05237 158.437 L -7.04213 158.393 L -7.03495 158.353 L -7.02517 158.312 L -7.01174 158.268 L -7.00204 158.217 L -6.99512 158.161 L -6.98546 158.111 L -6.97207 158.067 L -6.96227 158.027 L -6.95482 157.986 L -6.94386 157.942 L -6.92871 157.891 L -6.91854 157.836 L -6.92904 157.936 L -6.92528 157.886 L -6.92495 157.842 L -6.92557 157.801 L -6.9261 157.761 L -6.92633 157.717 L -6.92637 157.666 L -6.92634 157.611 L -6.92632 157.56 L -6.92631 157.516 L -6.9263 157.475 L -6.9263 157.436 L -6.9263 157.395 L -6.92631 157.35 L -6.92631 157.299 L -6.92631 157.244 L -6.92631 157.194 L -6.92631 157.151 L -6.92631 157.11 L -6.92631 157.064 L -6.92631 157.004 L -6.92631 156.93 L -6.92631 156.859 L -6.9263 156.791 L -6.9263 156.729 L -6.92629 156.67 L -6.92628 156.621 L -6.92631 156.578 L -6.92643 156.539 L -6.92665 156.499 L -6.92683 156.455 L -6.92645 156.404 L -6.92446 156.347 L -6.91997 156.292 L -6.91392 156.244 L -6.9085 156.198 Z" style='fill:rgba(255,221,51,1); stroke:none' />

<path d="M 22.4992 158.279 L 22.4992 158.279 L 22.5091 158.184 L 22.5466 158.097 L 22.5988 158.016 L 22.6613 157.943 L 22.7341 157.879 L 22.8178 157.83 L 22.9084 157.795 L 23.0049 157.779 L 23.0887 157.812 L 23.1139 157.902 L 23.1189 157.939 L 23.1252 157.975 L 23.1298 158.013 L 23.1314 158.056 L 23.1315 158.107 L 23.1313 158.165 L 23.1311 158.216 L 23.1311 158.26 L 23.1311 158.3 L 23.1311 158.339 L 23.1311 158.379 L 23.1311 158.423 L 23.1311 158.474 L 23.1311 158.531 L 23.1311 158.581 L 23.1311 158.624 L 23.1311 158.669 L 23.1311 158.73 L 23.1311 158.805 L 23.1311 158.866 L 23.1311 158.912 L 23.1311 158.952 L 23.1311 158.991 L 23.1311 159.033 L 23.1311 159.084 L 23.1311 159.143 L 23.1311 159.194 L 23.1312 159.236 L 23.1312 159.276 L 23.1313 159.316 L 23.131 159.36 L 23.13 159.412 L 23.128 159.472 L 23.1279 159.522 L 23.1012 159.426 L 23.1118 159.458 L 23.0232 159.422 L 23.0565 159.433 L 23.1149 159.434 L 23.1905 159.432 L 23.2577 159.431 L 23.3238 159.431 L 23.3973 159.431 L 23.4589 159.431 L 23.5138 159.431 L 23.5732 159.431 L 23.6332 159.431 L 23.6958 159.431 L 23.7558 159.431 L 23.8152 159.431 L 23.8684 159.431 L 23.9211 159.431 L 23.9777 159.431 L 24.0277 159.431 L 24.0711 159.431 L 24.111 159.431 L 24.1499 159.431 L 24.1898 159.431 L 24.2335 159.431 L 24.2845 159.431 L 24.3424 159.431 L 24.3936 159.431 L 24.4365 159.431 L 24.4754 159.431 L 24.5144 159.431 L 24.5572 159.431 L 24.6085 159.431 L 24.6664 159.431 L 24.7174 159.431 L 24.7608 159.431 L 24.8003 159.431 L 24.8393 159.431 L 24.8819 159.431 L 24.9326 159.431 L 24.9909 159.431 L 25.0461 159.431 L 25.1346 159.466 L 25.1613 159.562 L 25.1358 159.662 L 25.0879 159.752 L 25.0279 159.835 L 24.9262 159.941 L 24.8441 160 L 24.7535 160.044 L 24.6555 160.066 L 24.6003 160.066 L 24.5421 160.066 L 24.4913 160.066 L 24.4488 160.066 L 24.4098 160.066 L 24.3703 160.066 L 24.3268 160.066 L 24.2758 160.066 L 24.218 160.066 L 24.1667 160.066 L 24.1238 160.066 L 24.0849 160.066 L 24.046 160.066 L 24.0031 160.066 L 23.9518 160.066 L 23.894 160.066 L 23.8429 160.066 L 23.7992 160.066 L 23.7593 160.066 L 23.7204 160.066 L 23.6806 160.066 L 23.6372 160.066 L 23.5871 160.066 L 23.5306 160.066 L 23.4779 160.066 L 23.4246 160.066 L 23.3653 160.066 L 23.3052 160.066 L 23.2426 160.066 L 23.1826 160.066 L 23.1233 160.066 L 23.0683 160.066 L 23.0067 160.066 L 22.9332 160.066 L 22.8672 160.066 L 22.8 160.067 L 22.7243 160.069 L 22.6659 160.068 L 22.5652 160.052 L 22.5319 160.041 L 22.4886 159.951 L 22.478 159.92 L 22.4781 159.87 L 22.4801 159.81 L 22.4812 159.758 L 22.4815 159.714 L 22.4814 159.674 L 22.4813 159.635 L 22.4813 159.592 L 22.4813 159.541 L 22.4813 159.483 L 22.4813 159.432 L 22.4813 159.389 L 22.4813 159.35 L 22.4813 159.311 L 22.4813 159.265 L 22.4813 159.203 L 22.4813 159.128 L 22.4813 159.068 L 22.4813 159.022 L 22.4813 158.98 L 22.4813 158.93 L 22.4813 158.872 L 22.4813 158.821 L 22.4813 158.777 L 22.4813 158.737 L 22.4813 158.698 L 22.4813 158.658 L 22.4813 158.614 L 22.4811 158.563 L 22.4809 158.506 L 22.481 158.455 L 22.4827 158.41 L 22.4875 158.366 L 22.494 158.322 L 22.4992 158.279 Z" style='fill:rgba(255,221,51,1); stroke:none' />

<path d="M 29.879 158.443 L 29.879 158.443 L 29.838 158.359 L 29.8479 158.264 L 29.8855 158.177 L 29.9376 158.096 L 30.0001 158.022 L 30.073 157.959 L 30.1566 157.909 L 30.2472 157.874 L 30.3438 157.858 L 30.4275 157.892 L 30.4731 157.928 L 30.5229 157.963 L 30.5781 158.003 L 30.6367 158.052 L 30.6874 158.109 L 30.7295 158.161 L 30.7694 158.204 L 30.8147 158.245 L 30.8727 158.288 L 30.9371 158.336 L 30.9822 158.383 L 31.0157 158.418 L 31.0429 158.451 L 31.0652 158.489 L 31.0948 158.529 L 31.135 158.569 L 31.1862 158.609 L 31.2444 158.653 L 31.2954 158.705 L 31.3383 158.763 L 31.3783 158.811 L 31.4191 158.845 L 31.4626 158.869 L 31.5107 158.898 L 31.5581 158.934 L 31.5928 158.977 L 31.6262 159.029 L 31.6635 159.087 L 31.7011 159.138 L 31.7326 159.183 L 31.7566 159.225 L 31.7835 159.266 L 31.8131 159.304 L 31.8471 159.332 L 31.7586 159.297 L 31.8062 159.309 L 31.8553 159.312 L 31.8997 159.311 L 31.9403 159.308 L 31.8382 159.325 L 31.875 159.312 L 31.6908 159.401 L 31.7215 159.376 L 31.6445 159.442 L 31.6721 159.417 L 31.7491 159.35 L 31.8375 159.298 L 31.9333 159.261 L 31.9738 159.246 L 32.0251 159.231 L 31.8409 159.32 L 31.8822 159.293 L 31.7392 159.437 L 31.767 159.401 L 31.8331 159.324 L 31.8634 159.289 L 31.9003 159.253 L 31.9401 159.209 L 31.9778 159.17 L 32.0548 159.103 L 32.0862 159.076 L 32.0092 159.143 L 32.037 159.113 L 32.114 159.046 L 32.1546 159.01 L 32.2058 158.97 L 32.1288 159.037 L 32.1702 158.993 L 32.049 159.156 L 32.0771 159.104 L 32.1079 159.047 L 32.163 158.961 L 32.1998 158.91 L 32.2369 158.865 L 32.2669 158.823 L 32.2118 158.909 L 32.2333 158.868 L 32.2884 158.783 L 32.3125 158.745 L 32.3785 158.667 L 32.4555 158.6 L 32.4877 158.573 L 32.5762 158.521 L 32.6719 158.484 L 32.7193 158.473 L 32.8214 158.456 L 32.8679 158.453 L 32.7658 158.47 L 32.8008 158.462 L 32.5396 158.618 L 32.5622 158.597 L 32.441 158.76 L 32.4605 158.727 L 32.4208 158.819 L 32.4378 158.771 L 32.4566 158.721 L 32.4963 158.629 L 32.5176 158.587 L 32.5727 158.502 L 32.6388 158.424 L 32.7158 158.357 L 32.7501 158.327 L 32.8386 158.274 L 32.8884 158.252 L 32.9462 158.222 L 32.8578 158.275 L 32.9058 158.234 L 32.7628 158.378 L 32.796 158.327 L 32.7012 158.504 L 32.7256 158.446 L 32.7653 158.354 L 32.7965 158.303 L 32.8516 158.218 L 32.9176 158.14 L 32.9556 158.097 L 32.9925 158.056 L 32.9264 158.134 L 32.9535 158.093 L 32.8587 158.271 L 32.8751 158.228 L 32.9148 158.136 L 32.9387 158.087 L 32.9938 158.002 L 33.0599 157.924 L 33.1047 157.876 L 33.1817 157.809 L 33.233 157.774 L 33.3215 157.722 L 33.4172 157.685 L 33.5193 157.668 L 33.6078 157.703 L 33.6345 157.799 L 33.609 157.899 L 33.5612 157.99 L 33.5011 158.072 L 33.3994 158.178 L 33.3173 158.237 L 33.266 158.272 L 33.3481 158.213 L 33.3033 158.261 L 33.5128 157.982 L 33.4889 158.03 L 33.4726 158.073 L 33.4247 158.164 L 33.3976 158.204 L 33.3375 158.287 L 33.3006 158.327 L 33.2627 158.371 L 33.3228 158.288 L 33.2916 158.339 L 33.3394 158.249 L 33.315 158.307 L 33.2671 158.397 L 33.234 158.449 L 33.1739 158.531 L 33.0722 158.637 L 33.0242 158.678 L 32.9421 158.737 L 32.8842 158.767 L 32.7936 158.811 L 32.7438 158.833 L 32.9165 158.73 L 32.8822 158.761 L 33.0917 158.482 L 33.0705 158.523 L 33.0516 158.573 L 33.0346 158.622 L 32.9868 158.712 L 32.9673 158.745 L 32.9072 158.828 L 32.8056 158.934 L 32.783 158.955 L 32.7009 159.014 L 32.6103 159.058 L 32.5124 159.08 L 32.4773 159.088 L 32.4308 159.091 L 32.3835 159.102 L 32.6541 158.976 L 32.6219 159.004 L 32.7836 158.816 L 32.7596 158.853 L 32.7381 158.894 L 32.7081 158.936 L 32.648 159.018 L 32.611 159.063 L 32.671 158.98 L 32.6342 159.032 L 32.6034 159.089 L 32.5753 159.141 L 32.5152 159.223 L 32.4136 159.329 L 32.3722 159.373 L 32.3209 159.413 L 32.2804 159.449 L 32.3821 159.344 L 32.3542 159.374 L 32.2526 159.479 L 32.2212 159.507 L 32.1835 159.545 L 32.2851 159.439 L 32.2454 159.484 L 32.1437 159.59 L 32.1068 159.625 L 32.2085 159.519 L 32.1781 159.554 L 32.1503 159.59 L 32.0486 159.696 L 31.9665 159.755 L 31.9252 159.783 L 31.8346 159.827 L 31.7833 159.842 L 31.7427 159.857 L 31.9155 159.753 L 31.8879 159.779 L 31.8572 159.804 L 31.7751 159.864 L 31.6845 159.908 L 31.6477 159.921 L 31.5498 159.943 L 31.5092 159.947 L 31.4648 159.947 L 31.4157 159.944 L 31.3149 159.928 L 31.2673 159.916 L 31.2333 159.888 L 31.2036 159.849 L 31.1768 159.808 L 31.1528 159.766 L 31.1212 159.722 L 31.0837 159.67 L 31.0464 159.612 L 31.0129 159.561 L 30.9783 159.517 L 30.9308 159.481 L 30.8828 159.452 L 30.8392 159.429 L 30.7985 159.395 L 30.7585 159.346 L 30.7156 159.289 L 30.6645 159.236 L 30.6063 159.192 L 30.5552 159.152 L 30.5149 159.112 L 30.4853 159.072 L 30.4631 159.034 L 30.4359 159.001 L 30.4024 158.967 L 30.3573 158.92 L 30.2929 158.871 L 30.2349 158.828 L 30.1894 158.788 L 30.1493 158.745 L 30.1068 158.694 L 30.0563 158.636 L 30.0008 158.584 L 29.9539 158.536 L 29.9154 158.489 L 29.879 158.443 Z" style='fill:rgba(255,221,51,1); stroke:none' />

<path d="M 42.6994 153.676 L 42.6994 153.676 L 42.7093 153.581 L 42.7469 153.494 L 42.799 153.413 L 42.8615 153.34 L 42.9344 153.276 L 43.018 153.227 L 43.1086 153.192 L 43.2052 153.175 L 43.2889 153.209 L 43.3142 153.299 L 43.3175 153.335 L 43.3219 153.372 L 43.3272 153.413 L 43.3405 153.462 L 43.3137 153.367 L 43.3458 153.424 L 43.3958 153.478 L 43.4532 153.532 L 43.4958 153.591 L 43.5197 153.651 L 43.5464 153.747 L 43.5628 153.807 L 43.5725 153.86 L 43.5866 153.913 L 43.5599 153.817 L 43.5894 153.874 L 43.6263 153.928 L 43.6555 153.981 L 43.6822 154.077 L 43.6963 154.134 L 43.7072 154.185 L 43.6805 154.089 L 43.7008 154.132 L 43.7304 154.171 L 43.7695 154.21 L 43.8002 154.254 L 43.8244 154.305 L 43.8431 154.363 L 43.8606 154.415 L 43.8873 154.51 L 43.8988 154.553 L 43.8722 154.458 L 43.8836 154.497 L 43.8997 154.537 L 43.9129 154.582 L 43.9396 154.677 L 43.9537 154.73 L 43.969 154.785 L 43.9677 154.824 L 43.9422 154.924 L 43.8944 155.015 L 43.8343 155.097 L 43.7327 155.203 L 43.6506 155.262 L 43.625 155.277 L 43.5344 155.321 L 43.4364 155.343 L 43.3946 155.343 L 43.3417 155.34 L 43.2827 155.339 L 43.2322 155.341 L 43.3301 155.319 L 43.2886 155.33 L 43.249 155.348 L 43.1511 155.37 L 43.105 155.381 L 43.0435 155.383 L 42.9688 155.385 L 42.9079 155.394 L 43.0059 155.372 L 42.9611 155.388 L 42.9231 155.401 L 42.8845 155.413 L 42.8384 155.429 L 42.7405 155.451 L 42.6789 155.462 L 42.6044 155.475 L 42.7023 155.453 L 42.642 155.472 L 42.5968 155.492 L 42.5547 155.512 L 42.5054 155.525 L 42.4075 155.547 L 42.3503 155.559 L 42.4482 155.537 L 42.3974 155.552 L 42.2994 155.574 L 42.2562 155.582 L 42.216 155.589 L 42.4046 155.523 L 42.365 155.543 L 42.4471 155.483 L 42.4045 155.518 L 42.3224 155.577 L 42.2717 155.608 L 42.181 155.652 L 42.1232 155.677 L 42.0725 155.7 L 42.1631 155.656 L 42.1204 155.684 L 42.0809 155.712 L 42.0408 155.734 L 41.9976 155.755 L 41.907 155.799 L 41.856 155.818 L 41.7982 155.836 L 41.7473 155.848 L 41.7044 155.86 L 41.6645 155.876 L 41.6248 155.891 L 41.7155 155.847 L 41.6755 155.87 L 41.7576 155.811 L 41.7147 155.846 L 41.6326 155.906 L 41.5817 155.936 L 41.4911 155.98 L 41.4333 156.002 L 41.3353 156.024 L 41.2845 156.033 L 41.2416 156.035 L 41.202 156.034 L 41.1012 156.017 L 41.0579 155.927 L 41.0684 155.827 L 41.1081 155.735 L 41.1632 155.649 L 41.2293 155.572 L 41.3063 155.505 L 41.3947 155.453 L 41.4904 155.416 L 41.5925 155.398 L 41.6322 155.4 L 41.675 155.398 L 41.573 155.415 L 41.6238 155.406 L 41.6816 155.384 L 41.5859 155.421 L 41.6367 155.391 L 41.5483 155.443 L 41.5912 155.407 L 41.6797 155.355 L 41.7196 155.332 L 41.8153 155.295 L 41.855 155.28 L 41.7593 155.317 L 41.7992 155.3 L 41.8949 155.263 L 41.9379 155.252 L 41.9887 155.24 L 42.0465 155.222 L 42.0975 155.203 L 42.0017 155.24 L 42.045 155.219 L 42.085 155.197 L 41.9966 155.249 L 42.0361 155.221 L 42.0788 155.193 L 42.1673 155.141 L 42.218 155.118 L 42.2758 155.093 L 42.3265 155.062 L 42.2381 155.115 L 42.2807 155.08 L 42.3692 155.028 L 42.4088 155.008 L 42.5045 154.971 L 42.5446 154.964 L 42.5879 154.956 L 42.6387 154.941 L 42.6959 154.929 L 42.7453 154.916 L 42.6495 154.953 L 42.6916 154.932 L 42.7368 154.913 L 42.8325 154.876 L 42.8928 154.857 L 42.9949 154.839 L 43.0694 154.827 L 42.9673 154.844 L 43.0289 154.833 L 43.0751 154.817 L 43.1136 154.805 L 43.1516 154.792 L 43.1964 154.776 L 43.2985 154.759 L 43.3593 154.75 L 43.4341 154.748 L 43.4956 154.745 L 43.3935 154.762 L 43.4395 154.752 L 43.3438 154.789 L 43.3834 154.771 L 43.4791 154.734 L 43.5206 154.723 L 43.6227 154.706 L 43.6732 154.704 L 43.7322 154.705 L 43.7851 154.708 L 43.827 154.707 L 43.6292 154.762 L 43.6547 154.747 L 43.3179 155.222 L 43.3192 155.183 L 43.3039 155.128 L 43.2898 155.075 L 43.2766 155.031 L 43.2604 154.991 L 43.249 154.951 L 43.2375 154.908 L 43.2199 154.857 L 43.2012 154.799 L 43.177 154.748 L 43.2203 154.837 L 43.1897 154.794 L 43.1505 154.754 L 43.1209 154.715 L 43.0776 154.625 L 43.0574 154.583 L 43.0464 154.533 L 43.0324 154.475 L 43.0757 154.565 L 43.0465 154.511 L 43.0095 154.458 L 42.9801 154.401 L 42.9368 154.311 L 42.9227 154.258 L 42.9129 154.205 L 42.8966 154.145 L 42.8727 154.085 L 42.916 154.175 L 42.8733 154.115 L 42.8156 154.061 L 42.7652 154.008 L 42.7333 153.951 L 42.69 153.861 L 42.6802 153.809 L 42.6842 153.763 L 42.6926 153.718 L 42.6994 153.676 Z" style='fill:rgba(255,221,51,1); stroke:none' />

<path d='M-29.5864 111.423 L71.106 111.423 L71.106 180.223 L-29.5864 180.223 Z' style='fill:none; stroke:rgba(216,56,207,1); stroke-width:0.4375px' />
<path d='M134.999 -59.4399 L134.999 -19.1057' style='fill:none; stroke:rgba(255,26,64,1); stroke-width:0.4375px' />
<path d='M135 -19.1057 L140.276 -25.7292' style='fill:none; stroke:rgba(255,26,64,1); stroke-width:0.4375px' />
<path d='M135 -19.1056 L130.757 -25.4648' style='fill:none; stroke:rgba(255,26,64,1); stroke-width:0.4375px' />
<path d='M157.454 37.1481 L258.871 37.1481 L258.871 -54.1589 L106.982 -54.159' style='fill:none; stroke:rgba(43,217,101,1); stroke-width:0.4375px' />
<path d='M106.982 -54.1591 L113.844 -58.3555' style='fill:none; stroke:rgba(43,217,101,1); stroke-width:0.4375px' />
<path d='M106.982 -54.159 L114.228 -50.4428' style='fill:none; stroke:rgba(43,217,101,1); stroke-width:0.4375px' />
<path d='M61.0763 25.0456 L29.5497 25.0456 L29.5497 70.5455 L134.533 70.5455 L134.533 84.841' style='fill:none; stroke:rgba(216,56,207,1); stroke-width:0.4375px' />
<path d='M134.533 84.841 L137.442 80.8579' style='fill:none; stroke:rgba(216,56,207,1); stroke-width:0.4375px' />
<path d='M134.533 84.841 L131.799 80.6542' style='fill:none; stroke:rgba(216,56,207,1); stroke-width:0.4375px' />
<path d='M134.533 84.841 L134.546 84.8843' style='fill:none; stroke:rgba(216,56,207,1); stroke-width:0.4375px' />
<path d='M134.712 85.4043 L137.289 93.5071 L139.186 97.7969 L141.564 110.196' style='fill:none; stroke:rgba(216,56,207,1); stroke-width:0.4375px' />
<path d='M174.284 108.256 L177.33 109.556' style='fill:none; stroke:rgba(216,56,207,1); stroke-width:0.4375px' />
<path d='M177.33 109.556 L178.795 106.936' style='fill:none; stroke:rgba(216,56,207,1); stroke-width:0.4375px' />
<path d='M71.1061 111.423 L133.561 85.2398' style='fill:none; stroke:rgba(216,56,207,1); stroke-width:0.4375px; marker-start:url(#ArrowStart#d838cfff)' />
<path d='M-6.70195 159.116 L18.5934 147.116' style='fill:none; stroke:rgba(255,221,51,1); stroke-width:0.4375px' />
<path d='M140.963 110.196 L144.233 107.825' style='fill:none; stroke:rgba(216,56,207,1); stroke-width:0.4375px' />
<path d='M141.438 109.665 L138.109 108.898' style='fill:none; stroke:rgba(216,56,207,1); stroke-width:0.4375px' />
<path d='M199.443 110.29 L199.443 106.885' style='fill:none; stroke:rgba(216,56,207,1); stroke-width:0.4375px' />
<path d='M199.346 110.179 L196.831 110.179' style='fill:none; stroke:rgba(216,56,207,1); stroke-width:0.4375px' />
<path d='M-19.3552 139.074 L-40.1841 139.074' style='fill:none; stroke:rgba(255,26,64,1); stroke-width:0.4375px' />
<path d='M-23.9131 167.364 L-40.1841 167.364 L-40.1841 139.074' style='fill:none; stroke:rgba(255,26,64,1); stroke-width:0.4375px' />
<path d='M-40.1841 139.074 L-40.1841 75.0375 L-40.1841 38.8231 L51.4782 38.8231' style='fill:none; stroke:rgba(255,26,64,1); stroke-width:0.4375px; marker-end:url(#ArrowEnd#ff1a40ff)' />
<path d='M177.33,109.557 A56.7539,56.753 -19.934 0,0 137.953,86.029' style='fill:none; stroke:rgba(216,56,207,1); stroke-width:0.4375px' />
<path d='M19.1993,147.155 A8.56748,8.56747 11.9178 0,1 19.1993,147.175' style='fill:none; stroke:rgba(255,221,51,1); stroke-width:0.4375px' />
<path d='M19.6727,147.281 A8.56748,8.56747 11.9178 0,1 23.9853,159.285' style='fill:none; stroke:rgba(255,221,51,1); stroke-width:0.4375px' />
<path d='M19.9475,146.565 A10.9107,10.9107 0 0,1 31.5695,159.842' style='fill:none; stroke:rgba(255,221,51,1); stroke-width:0.4375px' />
<path d='M21.1783,146.524 A26.9659,26.9659 -68.2151 0,1 42.6356,154.883' style='fill:none; stroke:rgba(255,221,51,1); stroke-width:0.4375px' />
<path d='M41.1436,135.334 A17.6342,4.53039 -6.94177 1,1 19.5393,144.91' style='fill:none; stroke:rgba(255,221,51,1); stroke-width:0.4375px' />
<path d='M138.788,84.2903 A75.8951,75.8937 -40.4223 0,1 199.632,110.508' style='fill:none; stroke:rgba(216,56,207,1); stroke-width:0.4375px' />

<text x='56.7357' y='-107.735' text-anchor='start' style='font-family:sans-serif; font-size:4.33087px'><tspan style='fill:rgba(0,0,0,1);font-family:sans-serif;font-style:normal;font-weight:400;font-size:4.33087px;'>1&#x20;.&#x20;Initializes&#x20;the&#x20;winsock&#x20;library&#x20;to&#x20;communicate&#x20;with&#x20;the&#x20;network&#x20;card</tspan></text>
<text x='56.7357' y='-101.239' text-anchor='start' style='font-family:sans-serif; font-size:4.33087px'><tspan style='fill:rgba(0,0,0,1);font-family:sans-serif;font-style:normal;font-weight:400;font-size:4.33087px;'>2&#x20;.&#x20;Creates</tspan><tspan style='fill:rgba(0,0,0,1);font-family:sans-serif;font-style:normal;font-weight:400;font-size:4.33087px;'>&#x20;a&#x20;socket&#x20;by&#x20;returning&#x20;the&#x20;kernel-level&#x20;reference</tspan></text>
<text x='56.7357' y='-94.7423' text-anchor='start' style='font-family:sans-serif; font-size:4.33087px'><tspan style='fill:rgba(0,0,0,1);font-family:sans-serif;font-style:normal;font-weight:400;font-size:4.33087px;'>3&#x20;.&#x20;Sets&#x20;the&#x20;server&#x20;’&#x20;s&#x20;IP&#x20;address&#x20;and&#x20;port&#x20;number</tspan></text>
<text x='56.7357' y='-88.246' text-anchor='start' style='font-family:sans-serif; font-size:4.33087px'><tspan style='fill:rgba(0,0,0,1);font-family:sans-serif;font-style:normal;font-weight:400;font-size:4.33087px;'>4&#x20;.&#x20;Binds&#x20;the&#x20;informations&#x20;of&#x20;the&#x20;point&#x20;#3&#x20;to&#x20;the&#x20;socket&#x20;reference&#x20;of&#x20;the&#x20;point&#x20;#2</tspan></text>
<text x='56.7357' y='-81.7497' text-anchor='start' style='font-family:sans-serif; font-size:4.33087px'><tspan style='fill:rgba(0,0,0,1);font-family:sans-serif;font-style:normal;font-weight:400;font-size:4.33087px;'>5&#x20;.&#x20;Sets&#x20;the&#x20;socket&#x20;on&#x20;listen&#x20;mode&#x20;with&#x20;a&#x20;queue&#x20;of&#x20;size&#x20;3&#x20;.</tspan></text>
<text x='56.7357' y='-75.2534' text-anchor='start' style='font-family:sans-serif; font-size:4.33087px'><tspan style='fill:rgba(0,0,0,1);font-family:sans-serif;font-style:normal;font-weight:400;font-size:4.33087px;'>6&#x20;.</tspan><tspan style='fill:rgba(0,198,31,1);font-family:sans-serif;font-style:normal;font-weight:400;font-size:4.33087px;'>&#x20;WHILE&#x20;requestsNumber&#x20;&lt;&#x20;20</tspan></text>
<text x='65.0923' y='-68.757' text-anchor='start' style='font-family:sans-serif; font-size:4.33087px'><tspan style='fill:rgba(0,198,31,1);font-family:sans-serif;font-style:normal;font-weight:400;font-size:4.33087px;'>6&#x20;.&#x20;1&#x20;.&#x20;Accepts&#x20;a&#x20;client&#x20;&apos;&#x20;s&#x20;request&#x20;memorizing&#x20;it&#x20;&apos;&#x20;s&#x20;info&#x20;in&#x20;local&#x20;variables</tspan></text>
<text x='65.0923' y='-62.2607' text-anchor='start' style='font-family:sans-serif; font-size:4.33087px'><tspan style='fill:rgba(0,198,31,1);font-family:sans-serif;font-style:normal;font-weight:400;font-size:4.33087px;'>6&#x20;.&#x20;2&#x20;.&#x20;Route&#x20;request&#x20;to</tspan><tspan style='fill:rgba(255,26,64,1);font-family:sans-serif;font-style:normal;font-weight:400;font-size:4.33087px;'>&#x20;GATEWAY&#x20;.&#x20;C</tspan></text>
<text x='56.972' y='-55.7644' text-anchor='start' style='font-family:sans-serif; font-size:4.33087px'><tspan style='fill:rgba(0,0,0,1);font-family:sans-serif;font-style:normal;font-weight:400;font-size:4.33087px;'>7&#x20;.&#x20;Close&#x20;the&#x20;socket</tspan></text>
<text x='52.2266' y='-121.938' text-anchor='start' style='font-family:sans-serif; font-size:4px'><tspan style='fill:rgba(0,0,0,1);font-family:sans-serif;font-style:normal;font-weight:400;font-size:4px;'>SERVER&#x20;.&#x20;C</tspan></text>
<text x='53.534' y='-17.2371' text-anchor='start' style='font-family:sans-serif; font-size:4px'><tspan style='fill:rgba(0,0,0,1);font-family:sans-serif;font-style:normal;font-weight:400;font-size:4px;'>GATEWAY&#x20;.&#x20;C</tspan></text>
<text x='96.707' y='107.884' text-anchor='start' style='font-family:sans-serif; font-size:4px'><tspan style='fill:rgba(0,0,0,1);font-family:sans-serif;font-style:normal;font-weight:400;font-size:4px;'>CONTROLLER&#x20;_&#x20;B&#x20;.&#x20;C</tspan></text>
<text x='201.632' y='108.195' text-anchor='start' style='font-family:sans-serif; font-size:4px'><tspan style='fill:rgba(0,0,0,1);font-family:sans-serif;font-style:normal;font-weight:400;font-size:4px;'>CONTROLLER&#x20;_&#x20;Z&#x20;.&#x20;C</tspan></text>
<text x='56.772' y='-3.66221' text-anchor='start' style='font-family:sans-serif; font-size:4px'><tspan style='fill:rgba(0,0,0,1);font-family:sans-serif;font-style:normal;font-weight:400;font-size:4px;'>0&#x20;.</tspan><tspan style='fill:rgba(0,0,0,1);font-family:sans-serif;font-style:normal;font-weight:400;font-size:4px;'>&#x20;Defines&#x20;the&#x20;“&#x20;Route&#x20;”&#x20;type&#x20;that&#x20;links&#x20;a&#x20;controller&#x20;to&#x20;a&#x20;certain&#x20;path&#x20;in&#x20;the&#x20;URL&#x20;requested&#x20;by</tspan></text>
<text x='64.272' y='2.33779' text-anchor='start' style='font-family:sans-serif; font-size:4px'><tspan style='fill:rgba(0,0,0,1);font-family:sans-serif;font-style:normal;font-weight:400;font-size:4px;'>the&#x20;client&#x20;.</tspan></text>
<text x='56.772' y='8.33779' text-anchor='start' style='font-family:sans-serif; font-size:4px'><tspan style='fill:rgba(0,0,0,1);font-family:sans-serif;font-style:normal;font-weight:400;font-size:4px;'>1&#x20;.&#x20;Reads&#x20;the&#x20;headers&#x20;of&#x20;the&#x20;request&#x20;received&#x20;.</tspan></text>
<text x='56.772' y='14.3378' text-anchor='start' style='font-family:sans-serif; font-size:4px'><tspan style='fill:rgba(0,0,0,1);font-family:sans-serif;font-style:normal;font-weight:400;font-size:4px;'>2&#x20;.&#x20;Extracts&#x20;the&#x20;HttpMethod&#x20;,&#x20;the&#x20;requested&#x20;path&#x20;,&#x20;and&#x20;any&#x20;content&#x20;length&#x20;from&#x20;the&#x20;headers&#x20;.</tspan></text>
<text x='56.772' y='20.3378' text-anchor='start' style='font-family:sans-serif; font-size:4px'><tspan style='fill:rgba(0,0,0,1);font-family:sans-serif;font-style:normal;font-weight:400;font-size:4px;'>3&#x20;.&#x20;Based&#x20;on&#x20;the&#x20;information&#x20;in&#x20;point&#x20;#2&#x20;,&#x20;it&#x20;forwards&#x20;(&#x20;if&#x20;possible&#x20;)&#x20;the&#x20;request&#x20;to&#x20;the&#x20;switch</tspan></text>
<text x='64.272' y='26.3378' text-anchor='start' style='font-family:sans-serif; font-size:4px'><tspan style='fill:rgba(0,0,0,1);font-family:sans-serif;font-style:normal;font-weight:400;font-size:4px;'>of&#x20;the</tspan><tspan style='fill:rgba(216,56,207,1);font-family:sans-serif;font-style:normal;font-weight:400;font-size:4px;'>&#x20;CONTROLLER&#x20;_&#x20;SWITCH&#x20;RESPONSIBLE</tspan><tspan style='fill:rgba(0,0,0,1);font-family:sans-serif;font-style:normal;font-weight:400;font-size:4px;'>&#x20;for&#x20;the&#x20;request&#x20;.&#x20;If&#x20;the&#x20;request&#x20;contains</tspan></text>
<text x='64.4902' y='32.3378' text-anchor='start' style='font-family:sans-serif; font-size:4px'><tspan style='fill:rgba(0,0,0,1);font-family:sans-serif;font-style:normal;font-weight:400;font-size:4px;'>corrupted&#x20;information&#x20;,&#x20;it&#x20;sends&#x20;a&#x20;BAD&#x20;_&#x20;REQUEST&#x20;to&#x20;the&#x20;client&#x20;.</tspan></text>
<text x='56.9902' y='38.3378' text-anchor='start' style='font-family:sans-serif; font-size:4px'><tspan style='fill:rgba(0,0,0,1);font-family:sans-serif;font-style:normal;font-weight:400;font-size:4px;'>4&#x20;.&#x20;It&#x20;closes&#x20;the&#x20;communication&#x20;with&#x20;the&#x20;client&#x20;.</tspan></text>
<text x='-24.4836' y='157.434' text-anchor='start' style='font-family:sans-serif; font-size:2.69974px'><tspan style='fill:rgba(0,0,0,1);font-family:sans-serif;font-style:normal;font-weight:400;font-size:2.69974px;'>metodo&#x20;_&#x20;GET</tspan></text>
<text x='4.35181' y='157.808' text-anchor='start' style='font-family:sans-serif; font-size:3.03255px'><tspan style='fill:rgba(0,0,0,1);font-family:sans-serif;font-style:normal;font-weight:400;font-size:3.03255px;'>metodo&#x20;_&#x20;POST</tspan></text>
<text x='41.2459' y='158.023' text-anchor='start' style='font-family:sans-serif; font-size:3.03255px'><tspan style='fill:rgba(0,0,0,1);font-family:sans-serif;font-style:normal;font-weight:400;font-size:3.03255px;'>metodo&#x20;_&#x20;DELETE</tspan></text>
<text x='-22.7621' y='124.566' text-anchor='start' style='font-family:sans-serif; font-size:2.12547px'><tspan style='fill:rgba(0,0,0,1);font-family:sans-serif;font-style:normal;font-weight:400;font-size:2.12547px;'>CONTROLLER&#x20;_&#x20;A&#x20;_&#x20;SWITCH</tspan></text>
<text x='-29.6723' y='109.851' text-anchor='start' style='font-family:sans-serif; font-size:4px'><tspan style='fill:rgba(0,0,0,1);font-family:sans-serif;font-style:normal;font-weight:400;font-size:4px;'>CONTROLLER&#x20;_&#x20;A&#x20;.&#x20;C</tspan></text>
<text x='-22.762' y='117.632' text-anchor='start' style='font-family:sans-serif; font-size:2.14595px'><tspan style='fill:rgba(0,0,0,1);font-family:sans-serif;font-style:normal;font-weight:400;font-size:2.14595px;'>0&#x20;.&#x20;Defines&#x20;as&#x20;&quot;&#x20;Endpoint&#x20;&quot;&#x20;the&#x20;tuple&#x20;path&#x20;-&#x20;HttpMethod&#x20;-&#x20;Funzione&#x20;_&#x20;Handler</tspan></text>
<text x='-21.8027' y='133.774' text-anchor='start' style='font-family:sans-serif; font-size:2.02607px'><tspan style='fill:rgba(0,0,0,1);font-family:sans-serif;font-style:normal;font-weight:400;font-size:2.02607px;'>1&#x20;.&#x20;Based&#x20;on&#x20;received&#x20;info&#x20;(&#x20;path&#x20;,&#x20;HttpMethod&#x20;,&#x20;content&#x20;-&#x20;Length&#x20;)&#x20;decides&#x20;(&#x20;if</tspan></text>
<text x='-18.0038' y='136.813' text-anchor='start' style='font-family:sans-serif; font-size:2.02607px'><tspan style='fill:rgba(0,0,0,1);font-family:sans-serif;font-style:normal;font-weight:400;font-size:2.02607px;'>possible&#x20;)&#x20;whic</tspan><tspan style='fill:rgba(255,221,51,1);font-family:sans-serif;font-style:normal;font-weight:400;font-size:2.02607px;'>&#x20;function&#x20;to&#x20;switch</tspan><tspan style='fill:rgba(0,0,0,1);font-family:sans-serif;font-style:normal;font-weight:400;font-size:2.02607px;'>&#x20;the&#x20;request&#x20;to&#x20;.</tspan></text>
<text x='-18.0038' y='139.852' text-anchor='start' style='font-family:sans-serif; font-size:2.02607px'><tspan style='fill:rgba(0,0,0,1);font-family:sans-serif;font-style:normal;font-weight:400;font-size:2.02607px;'>If&#x20;it&#x20;doesen&#x20;&apos;&#x20;t&#x20;find&#x20;any&#x20;Endpoint&#x20;,&#x20;sends&#x20;a&#x20;404&#x20;NOT&#x20;_&#x20;FOUND</tspan></text>
<text x='27.8872' y='167.523' text-anchor='start' style='font-family:sans-serif; font-size:8.53088px'><tspan style='fill:rgba(0,0,0,1);font-family:sans-serif;font-style:normal;font-weight:400;font-size:8.53088px;'>.&#x20;.&#x20;.</tspan></text>
<text x='168.264' y='137.979' text-anchor='start' style='font-family:sans-serif; font-size:14.0348px'><tspan style='fill:rgba(0,0,0,1);font-family:sans-serif;font-style:normal;font-weight:400;font-size:14.0348px;'>.&#x20;.&#x20;.</tspan></text>

</svg>